# xmcd
# 
# Track frame offsets:
#     150
#     15871
#     37537
#     52327
#     68647
#     85336
# 
# Disc length: 1350
# 
# Revision: 0
# Processed by: cddbd v1.5.2PL0 Copyright (c) Steve Scherf et al.
# Submitted via: fre:ac v1.0.17
# 
DISCID=3c054406
DTITLE=セイレン・アン - We Are One
DYEAR=2015
DGENRE=
TTITLE0=We Are One
TTITLE1=Key To Your Heart
TTITLE2=By My Side
TTITLE3=Crazy
TTITLE4=Happy
TTITLE5=That's OK
EXTD=
EXTT0=
EXTT1=
EXTT2=
EXTT3=
EXTT4=
EXTT5=
PLAYORDER=
